<svg width="64" height="64" viewBox="0 0 64 64" fill="none" xmlns="http://www.w3.org/2000/svg">
<path fill-rule="evenodd" clip-rule="evenodd" d="M22.5462 25.9122L23.5512 37.8656C23.6245 38.7856 24.3762 39.4756 25.2945 39.4756H25.3012H43.4862H43.4895C44.3578 39.4756 45.0995 38.8289 45.2228 37.9706L46.8062 27.0389C46.8428 26.7789 46.7778 26.5189 46.6195 26.3089C46.4628 26.0972 46.2328 25.9606 45.9728 25.9239C45.6245 25.9372 31.1695 25.9172 22.5462 25.9122ZM25.2912 41.9756C23.0962 41.9756 21.2378 40.2622 21.0595 38.0706L19.5328 19.9139L17.0212 19.4806C16.3395 19.3606 15.8845 18.7156 16.0012 18.0339C16.1212 17.3522 16.7795 16.9089 17.4462 17.0156L20.9128 17.6156C21.4712 17.7139 21.8962 18.1772 21.9445 18.7439L22.3362 23.4122C46.1295 23.4222 46.2062 23.4339 46.3212 23.4472C47.2495 23.5822 48.0662 24.0672 48.6228 24.8139C49.1795 25.5589 49.4128 26.4772 49.2795 27.3972L47.6978 38.3272C47.3995 40.4072 45.5928 41.9756 43.4928 41.9756H43.4845H25.3045H25.2912Z" fill="#2344B0"/>
<path fill-rule="evenodd" clip-rule="evenodd" d="M40.8126 32.0728H36.1926C35.501 32.0728 34.9426 31.5128 34.9426 30.8228C34.9426 30.1328 35.501 29.5728 36.1926 29.5728H40.8126C41.5026 29.5728 42.0626 30.1328 42.0626 30.8228C42.0626 31.5128 41.5026 32.0728 40.8126 32.0728Z" fill="#2344B0"/>
<path fill-rule="evenodd" clip-rule="evenodd" d="M24.5742 46.5032C25.0758 46.5032 25.4808 46.9082 25.4808 47.4098C25.4808 47.9115 25.0758 48.3182 24.5742 48.3182C24.0708 48.3182 23.6658 47.9115 23.6658 47.4098C23.6658 46.9082 24.0708 46.5032 24.5742 46.5032Z" fill="#2344B0"/>
<mask id="mask0_303_497" style="mask-type:alpha" maskUnits="userSpaceOnUse" x="23" y="46" width="3" height="3">
<path fill-rule="evenodd" clip-rule="evenodd" d="M23.665 47.4091C23.665 47.9124 24.07 48.3191 24.575 48.3191C25.0766 48.3191 25.4816 47.9124 25.4816 47.4091C25.4816 46.9074 25.0766 46.5024 24.575 46.5024C24.07 46.5024 23.665 46.9074 23.665 47.4091Z" fill="white"/>
</mask>
<g mask="url(#mask0_303_497)">
<path fill-rule="evenodd" clip-rule="evenodd" d="M15.3333 56.6509H33.815V38.1692H15.3333V56.6509Z" fill="#2344B0"/>
</g>
<path fill-rule="evenodd" clip-rule="evenodd" d="M24.5725 47.0679C24.3842 47.0679 24.2308 47.2213 24.2308 47.4096C24.2308 47.7879 24.9158 47.7879 24.9158 47.4096C24.9158 47.2213 24.7608 47.0679 24.5725 47.0679ZM24.5725 49.5679C23.3825 49.5679 22.4158 48.5996 22.4158 47.4096C22.4158 46.2196 23.3825 45.2529 24.5725 45.2529C25.7625 45.2529 26.7308 46.2196 26.7308 47.4096C26.7308 48.5996 25.7625 49.5679 24.5725 49.5679Z" fill="#2344B0"/>
<path fill-rule="evenodd" clip-rule="evenodd" d="M43.3746 46.5032C43.8763 46.5032 44.283 46.9082 44.283 47.4098C44.283 47.9115 43.8763 48.3182 43.3746 48.3182C42.8713 48.3182 42.4663 47.9115 42.4663 47.4098C42.4663 46.9082 42.8713 46.5032 43.3746 46.5032Z" fill="#2344B0"/>
<mask id="mask1_303_497" style="mask-type:alpha" maskUnits="userSpaceOnUse" x="42" y="46" width="3" height="3">
<path fill-rule="evenodd" clip-rule="evenodd" d="M42.4667 47.4091C42.4667 47.9124 42.8717 48.3191 43.375 48.3191C43.875 48.3191 44.2833 47.9124 44.2833 47.4091C44.2833 46.9074 43.875 46.5024 43.375 46.5024C42.8717 46.5024 42.4667 46.9074 42.4667 47.4091Z" fill="white"/>
</mask>
<g mask="url(#mask1_303_497)">
<path fill-rule="evenodd" clip-rule="evenodd" d="M34.1334 56.6509H52.6167V38.1692H34.1334V56.6509Z" fill="#2344B0"/>
</g>
<path fill-rule="evenodd" clip-rule="evenodd" d="M43.373 47.0679C43.1863 47.0679 43.033 47.2213 43.033 47.4096C43.0346 47.7913 43.718 47.7879 43.7163 47.4096C43.7163 47.2213 43.5613 47.0679 43.373 47.0679ZM43.373 49.5679C42.183 49.5679 41.2163 48.5996 41.2163 47.4096C41.2163 46.2196 42.183 45.2529 43.373 45.2529C44.5646 45.2529 45.533 46.2196 45.533 47.4096C45.533 48.5996 44.5646 49.5679 43.373 49.5679Z" fill="#2344B0"/>
</svg>
