<svg width="139" height="139" viewBox="0 0 139 139" fill="none" xmlns="http://www.w3.org/2000/svg">
<path fill-rule="evenodd" clip-rule="evenodd" d="M69.5 139C69.6503 139 69.8005 139 69.9505 138.999C70.1915 100.972 100.972 70.1912 138.999 69.9498C139 69.8 139 69.65 139 69.5V69.4986C120.73 69.3807 103.233 62.0718 90.3052 49.1439C77.2717 36.1105 69.9495 18.4335 69.9491 0.00142047C69.7995 0.000473962 69.6498 0 69.5 0C69.5 18.4325 62.1777 36.1101 49.1439 49.1439C36.1101 62.1777 18.4325 69.5 0 69.5C18.4325 69.5 36.1101 76.8223 49.1439 89.8561C62.1777 102.89 69.5 120.567 69.5 139Z" fill="#FA6207"/>
</svg>
