<svg width="64" height="64" viewBox="0 0 64 64" fill="none" xmlns="http://www.w3.org/2000/svg">
<path fill-rule="evenodd" clip-rule="evenodd" d="M32 14C27.1112 14 26.4992 14.0204 24.5792 14.108C22.6628 14.1956 21.3536 14.5004 20.2088 14.9456C19.0088 15.3968 17.9204 16.1048 17.0204 17.0216C16.1051 17.9206 15.3966 19.0082 14.9444 20.2088C14.5016 21.3536 14.1956 22.664 14.108 24.5804C14.0216 26.4992 14 27.11 14 32C14 36.89 14.0204 37.5008 14.108 39.4208C14.1956 41.3372 14.5004 42.6464 14.9456 43.7912C15.3968 44.9912 16.1048 46.0796 17.0216 46.9796C17.9206 47.8949 19.0082 48.6033 20.2088 49.0556C21.3536 49.4996 22.6628 49.8044 24.5792 49.892C26.4992 49.9796 27.1112 50 32 50C36.8888 50 37.5008 49.9796 39.4208 49.892C41.3372 49.8044 42.6464 49.4996 43.7912 49.0544C44.9912 48.6032 46.0796 47.8952 46.9796 46.9784C47.8949 46.0794 48.6034 44.9918 49.0556 43.7912C49.4996 42.6464 49.8044 41.3372 49.892 39.4208C49.9796 37.5008 50 36.8888 50 32C50 27.1112 49.9796 26.4992 49.892 24.5792C49.8044 22.6628 49.4996 21.3536 49.0544 20.2088C48.6025 19.0077 47.894 17.9196 46.9784 17.0204C46.0794 16.1051 44.9918 15.3966 43.7912 14.9444C42.6464 14.5016 41.336 14.1956 39.4196 14.108C37.5008 14.0216 36.89 14 32 14ZM32 17.2436C36.806 17.2436 37.376 17.2616 39.2744 17.348C41.0288 17.4284 41.9816 17.72 42.6164 17.9684C43.4564 18.2936 44.0564 18.6848 44.6864 19.3136C45.3164 19.9436 45.7064 20.5436 46.0316 21.3836C46.2788 22.0184 46.5716 22.9712 46.652 24.7256C46.7384 26.624 46.7564 27.194 46.7564 32C46.7564 36.806 46.7384 37.376 46.652 39.2744C46.5716 41.0288 46.28 41.9816 46.0316 42.6164C45.7435 43.3983 45.2839 44.1056 44.6864 44.6864C44.1057 45.284 43.3983 45.7437 42.6164 46.0316C41.9816 46.2788 41.0288 46.5716 39.2744 46.652C37.376 46.7384 36.8072 46.7564 32 46.7564C27.1928 46.7564 26.624 46.7384 24.7256 46.652C22.9712 46.5716 22.0184 46.28 21.3836 46.0316C20.6017 45.7435 19.8944 45.2839 19.3136 44.6864C18.7162 44.1055 18.2566 43.3982 17.9684 42.6164C17.7212 41.9816 17.4284 41.0288 17.348 39.2744C17.2616 37.376 17.2436 36.806 17.2436 32C17.2436 27.194 17.2616 26.624 17.348 24.7256C17.4284 22.9712 17.72 22.0184 17.9684 21.3836C18.2936 20.5436 18.6848 19.9436 19.3136 19.3136C19.8943 18.7161 20.6017 18.2564 21.3836 17.9684C22.0184 17.7212 22.9712 17.4284 24.7256 17.348C26.624 17.2616 27.194 17.2436 32 17.2436Z" fill="#2344B0"/>
<path fill-rule="evenodd" clip-rule="evenodd" d="M32 38.0061C31.2113 38.0061 30.4303 37.8507 29.7016 37.5489C28.9729 37.2471 28.3108 36.8047 27.7531 36.247C27.1954 35.6892 26.753 35.0271 26.4512 34.2985C26.1493 33.5698 25.994 32.7888 25.994 32.0001C25.994 31.2113 26.1493 30.4304 26.4512 29.7017C26.753 28.973 27.1954 28.3109 27.7531 27.7532C28.3108 27.1955 28.9729 26.7531 29.7016 26.4512C30.4303 26.1494 31.2113 25.9941 32 25.9941C33.5929 25.9941 35.1205 26.6268 36.2469 27.7532C37.3732 28.8795 38.006 30.4072 38.006 32.0001C38.006 33.593 37.3732 35.1206 36.2469 36.247C35.1205 37.3733 33.5929 38.0061 32 38.0061ZM32 22.7481C29.5462 22.7481 27.1929 23.7228 25.4578 25.4579C23.7227 27.193 22.748 29.5463 22.748 32.0001C22.748 34.4538 23.7227 36.8071 25.4578 38.5422C27.1929 40.2773 29.5462 41.2521 32 41.2521C34.4538 41.2521 36.807 40.2773 38.5421 38.5422C40.2772 36.8071 41.252 34.4538 41.252 32.0001C41.252 29.5463 40.2772 27.193 38.5421 25.4579C36.807 23.7228 34.4538 22.7481 32 22.7481ZM43.9436 22.5801C43.9436 23.1601 43.7132 23.7164 43.303 24.1265C42.8929 24.5367 42.3366 24.7671 41.7566 24.7671C41.1766 24.7671 40.6203 24.5367 40.2101 24.1265C39.8 23.7164 39.5696 23.1601 39.5696 22.5801C39.5696 22 39.8 21.4438 40.2101 21.0336C40.6203 20.6235 41.1766 20.3931 41.7566 20.3931C42.3366 20.3931 42.8929 20.6235 43.303 21.0336C43.7132 21.4438 43.9436 22 43.9436 22.5801Z" fill="#2344B0"/>
</svg>
