<svg width="195" height="196" viewBox="0 0 195 196" fill="none" xmlns="http://www.w3.org/2000/svg">
<path fill-rule="evenodd" clip-rule="evenodd" d="M97.0661 195.229C97.2757 195.229 97.4852 195.228 97.6946 195.227C98.0314 142.088 141.044 99.0753 194.183 98.7385C194.184 98.5291 194.185 98.3196 194.185 98.1099V98.1079C168.654 97.9434 144.204 87.73 126.138 69.6644C107.925 51.4515 97.693 26.7497 97.6925 0.992914C97.4838 0.991596 97.275 0.990936 97.0661 0.990936C97.0661 26.7485 86.8339 51.4511 68.6206 69.6644C50.4197 87.8653 25.7385 98.0959 0 98.1099C25.7385 98.1238 50.4197 108.354 68.6206 126.555C86.8339 144.769 97.0661 169.471 97.0661 195.229Z" fill="white"/>
</svg>
