<svg width="116" height="116" viewBox="0 0 116 116" fill="none" xmlns="http://www.w3.org/2000/svg">
<path fill-rule="evenodd" clip-rule="evenodd" d="M58 116C58.1252 116 58.2504 116 58.3754 115.999C58.5764 84.264 84.264 58.5764 115.999 58.3752C116 58.2502 116 58.1252 116 58V57.9988C100.753 57.9006 86.1509 51.8011 75.362 41.0122C64.4852 30.1354 58.3745 15.3833 58.3742 0.0011818C58.2496 0.000394325 58.1248 0 58 0C58 15.3826 51.8893 30.1351 41.0122 41.0122C30.1351 51.8893 15.3826 58 0 58C0 58 0 58 0 58C15.3826 58 30.1351 64.1107 41.0122 74.9878C51.8893 85.865 58 100.617 58 116Z" fill="#962CF1"/>
</svg>
