<svg width="239" height="240" viewBox="0 0 239 240" fill="none" xmlns="http://www.w3.org/2000/svg">
<path d="M238.08 120C238.08 186.274 184.784 240 119.04 240C53.296 240 0 186.274 0 120C0 53.7258 53.296 -1.52588e-05 119.04 -1.52588e-05C184.784 -1.52588e-05 238.08 53.7258 238.08 120Z" fill="#FA6207"/>
<path fill-rule="evenodd" clip-rule="evenodd" d="M189.666 124.933C150.614 85.8802 87.2971 85.8802 48.2447 124.933C66.9983 143.686 92.4337 154.222 118.955 154.222C145.477 154.222 170.912 143.686 189.666 124.933Z" fill="white"/>
<circle cx="118.925" cy="125.222" r="29" fill="#B259FF"/>
<circle cx="118.925" cy="125.222" r="29" fill="black" fill-opacity="0.1"/>
<circle cx="118.925" cy="125.222" r="15" fill="#6000B3"/>
<circle cx="118.925" cy="125.222" r="15" fill="black" fill-opacity="0.2"/>
<circle cx="129.5" cy="113.5" r="6.5" fill="white"/>
</svg>
