<svg width="157" height="157" viewBox="0 0 157 157" fill="none" xmlns="http://www.w3.org/2000/svg">
<path fill-rule="evenodd" clip-rule="evenodd" d="M78.22 156.44C78.3889 156.44 78.5576 156.439 78.7262 156.438C78.9975 113.64 113.64 78.9975 156.438 78.7262C156.439 78.5576 156.44 78.3889 156.44 78.22V78.2184C135.877 78.0859 116.185 69.86 101.635 55.3099C86.966 40.6412 78.7251 20.7462 78.7247 0.00157855C78.5566 0.000516539 78.3883 -1.52588e-05 78.22 -1.52588e-05C78.22 20.7452 69.979 40.6408 55.3099 55.3099C40.6408 69.979 20.7452 78.22 0 78.22C20.7452 78.22 40.6408 86.461 55.3099 101.13C69.979 115.799 78.22 135.695 78.22 156.44Z" fill="white"/>
</svg>
