<svg width="188" height="188" viewBox="0 0 188 188" fill="none" xmlns="http://www.w3.org/2000/svg">
<path fill-rule="evenodd" clip-rule="evenodd" d="M93.78 187.56C93.9825 187.56 94.1848 187.559 94.387 187.558C94.7122 136.246 136.246 94.7121 187.558 94.3869C187.559 94.3048 187.559 94.2227 187.559 94.1406C187.56 94.0205 187.56 93.9003 187.56 93.78V93.778C162.906 93.6192 139.297 83.757 121.853 66.3125C104.266 48.7258 94.3855 24.8732 94.385 0.00191085C94.1835 0.000637584 93.9818 0 93.78 0C93.78 24.872 83.8996 48.7253 66.3125 66.3125C48.7253 83.8996 24.872 93.78 0 93.78C24.872 93.78 48.7253 103.66 66.3125 121.248C83.8996 138.835 93.78 162.688 93.78 187.56Z" fill="#F5E400"/>
</svg>
